<?xml version="1.0" encoding="UTF-8"?>
<!DOCTYPE svg PUBLIC "-//W3C//DTD SVG 1.1//EN" "http://www.w3.org/Graphics/SVG/1.1/DTD/svg11.dtd">
<svg xmlns="http://www.w3.org/2000/svg" version="1.1" width="500px" height="500px" style="shape-rendering:geometricPrecision; text-rendering:geometricPrecision; image-rendering:optimizeQuality; fill-rule:evenodd; clip-rule:evenodd" xmlns:xlink="http://www.w3.org/1999/xlink">
<g><path style="opacity:0.004" fill="#000000" d="M 93.5,4.5 C 94.8333,5.16667 94.8333,5.16667 93.5,4.5 Z"/></g>
<g><path style="opacity:0.004" fill="#000000" d="M 27.5,5.5 C 28.8333,6.16667 28.8333,6.16667 27.5,5.5 Z"/></g>
<g><path style="opacity:0.004" fill="#000000" d="M 16.5,6.5 C 17.8333,7.16667 17.8333,7.16667 16.5,6.5 Z"/></g>
<g><path style="opacity:0.004" fill="#000000" d="M 166.5,9.5 C 167.833,10.1667 167.833,10.1667 166.5,9.5 Z"/></g>
<g><path style="opacity:0.004" fill="#000000" d="M 55.5,11.5 C 56.8333,12.1667 56.8333,12.1667 55.5,11.5 Z"/></g>
<g><path style="opacity:0.004" fill="#000000" d="M 76.5,29.5 C 77.8333,30.1667 77.8333,30.1667 76.5,29.5 Z"/></g>
<g><path style="opacity:0.004" fill="#000000" d="M 8.5,31.5 C 9.83333,32.1667 9.83333,32.1667 8.5,31.5 Z"/></g>
<g><path style="opacity:0.004" fill="#000000" d="M 459.5,54.5 C 460.833,55.1667 460.833,55.1667 459.5,54.5 Z"/></g>
<g><path style="opacity:0.004" fill="#000000" d="M 230.5,58.5 C 231.833,59.1667 231.833,59.1667 230.5,58.5 Z"/></g>
<g><path style="opacity:0.004" fill="#000000" d="M 345.5,65.5 C 346.833,66.1667 346.833,66.1667 345.5,65.5 Z"/></g>
<g><path style="opacity:0.004" fill="#000000" d="M 131.5,75.5 C 132.833,76.1667 132.833,76.1667 131.5,75.5 Z"/></g>
<g><path style="opacity:0.004" fill="#000000" d="M 144.5,77.5 C 145.833,78.1667 145.833,78.1667 144.5,77.5 Z"/></g>
<g><path style="opacity:0.004" fill="#000000" d="M 23.5,82.5 C 24.8333,83.1667 24.8333,83.1667 23.5,82.5 Z"/></g>
<g><path style="opacity:0.004" fill="#000000" d="M 462.5,108.5 C 463.833,109.167 463.833,109.167 462.5,108.5 Z"/></g>
<g><path style="opacity:0.004" fill="#000000" d="M 126.5,112.5 C 127.833,113.167 127.833,113.167 126.5,112.5 Z"/></g>
<g><path style="opacity:0.004" fill="#000000" d="M 419.5,120.5 C 420.833,121.167 420.833,121.167 419.5,120.5 Z"/></g>
<g><path style="opacity:0.004" fill="#000000" d="M 356.5,134.5 C 357.833,135.167 357.833,135.167 356.5,134.5 Z"/></g>
<g><path style="opacity:0.433" fill="#434343" d="M 139.5,139.5 C 108.833,139.5 78.1667,139.5 47.5,139.5C 47.5,144.833 47.5,150.167 47.5,155.5C 46.5111,150.025 46.1778,144.358 46.5,138.5C 77.6712,138.169 108.671,138.502 139.5,139.5 Z"/></g>
<g><path style="opacity:0.995" fill="#f5f4f4" d="M 139.5,139.5 C 140.487,144.305 140.821,149.305 140.5,154.5C 126.484,154.167 112.484,154.501 98.5,155.5C 100.186,156.857 101.852,158.19 103.5,159.5C 106.113,162.645 107.779,166.311 108.5,170.5C 127.836,170.333 147.17,170.5 166.5,171C 167.326,189.093 167.826,207.26 168,225.5C 173.132,240.095 182.632,243.595 196.5,236C 198.761,233.228 200.261,230.062 201,226.5C 201.174,208.593 201.674,190.76 202.5,173C 202.167,172.667 201.833,172.333 201.5,172C 212.008,170.36 222.675,170.027 233.5,171C 234,171.5 234.5,172 235,172.5C 235.667,191.5 235.667,210.5 235,229.5C 233.754,249.075 223.587,260.908 204.5,265C 191.5,267 178.5,267 165.5,265C 150.061,262.879 140.228,254.379 136,239.5C 133.78,222.579 132.946,205.579 133.5,188.5C 125.167,188.5 116.833,188.5 108.5,188.5C 106.617,204.382 97.9507,214.382 82.5,218.5C 80.1016,218.259 78.1016,218.926 76.5,220.5C 74.9142,221.148 73.2475,221.648 71.5,222C 84.9601,237.772 98.2935,253.605 111.5,269.5C 111.427,271.027 112.094,272.027 113.5,272.5C 114.906,272.973 115.573,273.973 115.5,275.5C 106.506,276.231 97.8393,275.231 89.5,272.5C 75.1392,255.975 60.9726,239.308 47,222.5C 47.0201,216.814 47.5201,211.147 48.5,205.5C 59.0819,206.106 69.4152,204.939 79.5,202C 84.9026,199.026 88.2359,194.526 89.5,188.5C 75.6766,187.504 61.6766,187.171 47.5,187.5C 47.8205,182.305 47.4872,177.305 46.5,172.5C 46.5,172.167 46.5,171.833 46.5,171.5C 60.8333,171.5 75.1667,171.5 89.5,171.5C 89.7373,170.209 89.404,169.209 88.5,168.5C 86.2231,162.392 81.8898,158.559 75.5,157C 66.1955,155.933 56.8622,155.433 47.5,155.5C 47.5,150.167 47.5,144.833 47.5,139.5C 78.1667,139.5 108.833,139.5 139.5,139.5 Z"/></g>
<g><path style="opacity:0.004" fill="#000000" d="M 426.5,140.5 C 427.833,141.167 427.833,141.167 426.5,140.5 Z"/></g>
<g><path style="opacity:0.004" fill="#000000" d="M 178.5,142.5 C 179.833,143.167 179.833,143.167 178.5,142.5 Z"/></g>
<g><path style="opacity:0.004" fill="#000000" d="M 472.5,143.5 C 473.833,144.167 473.833,144.167 472.5,143.5 Z"/></g>
<g><path style="opacity:0.004" fill="#000000" d="M 456.5,145.5 C 457.833,146.167 457.833,146.167 456.5,145.5 Z"/></g>
<g><path style="opacity:0.004" fill="#000000" d="M 393.5,147.5 C 394.833,148.167 394.833,148.167 393.5,147.5 Z"/></g>
<g><path style="opacity:0.004" fill="#000000" d="M 228.5,148.5 C 229.833,149.167 229.833,149.167 228.5,148.5 Z"/></g>
<g><path style="opacity:0.004" fill="#000000" d="M 381.5,152.5 C 382.833,153.167 382.833,153.167 381.5,152.5 Z"/></g>
<g><path style="opacity:0.526" fill="#a09fa0" d="M 140.5,154.5 C 127.673,155.331 114.673,155.831 101.5,156C 102.823,156.816 103.489,157.983 103.5,159.5C 101.852,158.19 100.186,156.857 98.5,155.5C 112.484,154.501 126.484,154.167 140.5,154.5 Z"/></g>
<g><path style="opacity:0.004" fill="#000000" d="M 2.5,160.5 C 3.83333,161.167 3.83333,161.167 2.5,160.5 Z"/></g>
<g><path style="opacity:0.004" fill="#000000" d="M 28.5,162.5 C 29.8333,163.167 29.8333,163.167 28.5,162.5 Z"/></g>
<g><path style="opacity:0.006" fill="#040404" d="M 88.5,168.5 C 89.404,169.209 89.7373,170.209 89.5,171.5C 75.1667,171.5 60.8333,171.5 46.5,171.5C 60.6965,171.161 74.6965,170.161 88.5,168.5 Z"/></g>
<g><path style="opacity:0.997" fill="#f6f6f6" d="M 323.5,174.5 C 324.539,176.531 326.205,177.864 328.5,178.5C 332.498,181.665 335.998,185.332 339,189.5C 336.767,183.7 333.934,178.034 330.5,172.5C 331,172.167 331.5,171.833 332,171.5C 343.8,170.364 355.633,170.197 367.5,171C 375.887,186.279 384.387,201.446 393,216.5C 399.977,201.23 407.144,186.064 414.5,171C 426.736,171.311 439.069,171.477 451.5,171.5C 427.793,217.583 404.126,263.583 380.5,309.5C 367.788,310.146 355.455,309.48 343.5,307.5C 353.361,288.127 363.028,268.627 372.5,249C 363.3,230.762 353.466,212.929 343,195.5C 348.155,211.338 347.489,227.005 341,242.5C 327.447,264.025 308.281,271.191 283.5,264C 278.952,262.142 274.785,259.642 271,256.5C 270.5,274.497 270.333,292.497 270.5,310.5C 260.167,310.5 249.833,310.5 239.5,310.5C 238.505,264.239 238.172,217.905 238.5,171.5C 248.658,170.341 258.992,170.175 269.5,171C 270.288,174.076 270.788,177.242 271,180.5C 281.105,170.591 293.272,166.758 307.5,169C 313.315,169.653 318.648,171.487 323.5,174.5 Z M 271.5,210.5 C 272.345,209.329 273.011,207.995 273.5,206.5C 281.339,196.634 291.005,194.467 302.5,200C 311.603,208.448 313.436,218.281 308,229.5C 300.413,237.629 291.246,239.795 280.5,236C 271.709,229.578 268.709,221.078 271.5,210.5 Z"/></g>
<g><path style="opacity:0.482" fill="#797878" d="M 323.5,174.5 C 325.754,175.124 327.421,176.457 328.5,178.5C 326.205,177.864 324.539,176.531 323.5,174.5 Z"/></g>
<g><path style="opacity:0.004" fill="#000000" d="M 35.5,184.5 C 36.8333,185.167 36.8333,185.167 35.5,184.5 Z"/></g>
<g><path style="opacity:0.17" fill="#a3a3a3" d="M 46.5,172.5 C 47.4872,177.305 47.8205,182.305 47.5,187.5C 61.6766,187.171 75.6766,187.504 89.5,188.5C 75.1667,188.5 60.8333,188.5 46.5,188.5C 46.5,183.167 46.5,177.833 46.5,172.5 Z"/></g>
<g><path style="opacity:0.004" fill="#000000" d="M 70.5,198.5 C 71.8333,199.167 71.8333,199.167 70.5,198.5 Z"/></g>
<g><path style="opacity:0.004" fill="#000000" d="M 45.5,202.5 C 46.8333,203.167 46.8333,203.167 45.5,202.5 Z"/></g>
<g><path style="opacity:0.004" fill="#000000" d="M 129.5,206.5 C 130.833,207.167 130.833,207.167 129.5,206.5 Z"/></g>
<g><path style="opacity:0.004" fill="#372a28" d="M 273.5,206.5 C 273.011,207.995 272.345,209.329 271.5,210.5C 271.157,208.517 271.824,207.183 273.5,206.5 Z"/></g>
<g><path style="opacity:0.094" fill="#7b7b7b" d="M 82.5,218.5 C 80.8984,220.074 78.8984,220.741 76.5,220.5C 78.1016,218.926 80.1016,218.259 82.5,218.5 Z"/></g>
<g><path style="opacity:0.004" fill="#000000" d="M 480.5,221.5 C 481.833,222.167 481.833,222.167 480.5,221.5 Z"/></g>
<g><path style="opacity:0.004" fill="#000000" d="M 116.5,224.5 C 117.833,225.167 117.833,225.167 116.5,224.5 Z"/></g>
<g><path style="opacity:0.004" fill="#000000" d="M 434.5,235.5 C 435.833,236.167 435.833,236.167 434.5,235.5 Z"/></g>
<g><path style="opacity:0.039" fill="#999395" d="M 238.5,171.5 C 238.172,217.905 238.505,264.239 239.5,310.5C 238.167,287.676 237.5,264.51 237.5,241C 237.5,217.664 237.833,194.498 238.5,171.5 Z"/></g>
<g><path style="opacity:0.231" fill="#525252" d="M 111.5,269.5 C 112.906,269.973 113.573,270.973 113.5,272.5C 112.094,272.027 111.427,271.027 111.5,269.5 Z"/></g>
<g><path style="opacity:0.086" fill="#919191" d="M 89.5,272.5 C 97.8393,275.231 106.506,276.231 115.5,275.5C 108.011,276.656 100.345,276.822 92.5,276C 91.2899,274.961 90.2899,273.794 89.5,272.5 Z"/></g>
<g><path style="opacity:0.004" fill="#000000" d="M 353.5,282.5 C 354.833,283.167 354.833,283.167 353.5,282.5 Z"/></g>
<g><path style="opacity:0.004" fill="#000000" d="M 397.5,288.5 C 398.833,289.167 398.833,289.167 397.5,288.5 Z"/></g>
<g><path style="opacity:0.004" fill="#000000" d="M 281.5,291.5 C 282.833,292.167 282.833,292.167 281.5,291.5 Z"/></g>
<g><path style="opacity:0.004" fill="#000000" d="M 113.5,298.5 C 114.833,299.167 114.833,299.167 113.5,298.5 Z"/></g>
<g><path style="opacity:0.004" fill="#000000" d="M 476.5,301.5 C 477.833,302.167 477.833,302.167 476.5,301.5 Z"/></g>
<g><path style="opacity:0.004" fill="#000000" d="M 182.5,304.5 C 183.833,305.167 183.833,305.167 182.5,304.5 Z"/></g>
<g><path style="opacity:0.004" fill="#000000" d="M 414.5,308.5 C 415.833,309.167 415.833,309.167 414.5,308.5 Z"/></g>
<g><path style="opacity:0.146" fill="#7b7a7b" d="M 343.5,307.5 C 355.455,309.48 367.788,310.146 380.5,309.5C 368.011,310.495 355.344,310.829 342.5,310.5C 342.263,309.209 342.596,308.209 343.5,307.5 Z"/></g>
<g><path style="opacity:0.004" fill="#000000" d="M 459.5,309.5 C 460.833,310.167 460.833,310.167 459.5,309.5 Z"/></g>
<g><path style="opacity:0.004" fill="#000000" d="M 342.5,316.5 C 343.833,317.167 343.833,317.167 342.5,316.5 Z"/></g>
<g><path style="opacity:0.004" fill="#000000" d="M 187.5,317.5 C 188.833,318.167 188.833,318.167 187.5,317.5 Z"/></g>
<g><path style="opacity:0.004" fill="#000000" d="M 443.5,317.5 C 444.833,318.167 444.833,318.167 443.5,317.5 Z"/></g>
<g><path style="opacity:0.93" fill="#c5c4c4" d="M 445.5,330.5 C 446.5,330.5 447.5,330.5 448.5,330.5C 448.232,332.099 448.566,333.432 449.5,334.5C 452.044,334.104 454.211,334.771 456,336.5C 456.667,339.833 456.667,343.167 456,346.5C 452.951,349.957 449.451,350.29 445.5,347.5C 444.171,341.803 444.171,336.137 445.5,330.5 Z M 449.5,337.5 C 450.496,337.414 451.329,337.748 452,338.5C 452.497,340.81 452.663,343.143 452.5,345.5C 451.5,345.5 450.5,345.5 449.5,345.5C 449.5,342.833 449.5,340.167 449.5,337.5 Z"/></g>
<g><path style="opacity:0.118" fill="#343434" d="M 445.5,330.5 C 446.568,329.566 447.901,329.232 449.5,329.5C 449.5,331.167 449.5,332.833 449.5,334.5C 448.566,333.432 448.232,332.099 448.5,330.5C 447.5,330.5 446.5,330.5 445.5,330.5 Z"/></g>
<g><path style="opacity:0.947" fill="#d9d9d9" d="M 51.5,330.5 C 52.7736,331.189 52.7736,332.023 51.5,333C 49.8659,333.494 48.1992,333.66 46.5,333.5C 46.5,335.167 46.5,336.833 46.5,338.5C 47.8333,338.5 49.1667,338.5 50.5,338.5C 50.5,339.5 50.5,340.5 50.5,341.5C 49.1667,341.5 47.8333,341.5 46.5,341.5C 46.5,343.833 46.5,346.167 46.5,348.5C 45.5,348.5 44.5,348.5 43.5,348.5C 43.5,342.5 43.5,336.5 43.5,330.5C 46.1667,330.5 48.8333,330.5 51.5,330.5 Z"/></g>
<g><path style="opacity:0.951" fill="#dbd9da" d="M 398.5,329.5 C 403.825,328.314 406.825,330.314 407.5,335.5C 405.019,335.677 403.186,334.677 402,332.5C 400.412,336.309 400.078,340.309 401,344.5C 402.813,345.609 403.646,344.942 403.5,342.5C 404.833,342.5 406.167,342.5 407.5,342.5C 408.008,346.925 406.008,349.258 401.5,349.5C 399.941,348.926 398.441,348.26 397,347.5C 396.333,342.167 396.333,336.833 397,331.5C 397.717,330.956 398.217,330.289 398.5,329.5 Z"/></g>
<g><path style="opacity:0.98" fill="#f1eff0" d="M 418.5,330.5 C 418.5,336.5 418.5,342.5 418.5,348.5C 417.167,348.5 415.833,348.5 414.5,348.5C 414.5,346.5 414.5,344.5 414.5,342.5C 415.483,338.702 415.817,334.702 415.5,330.5C 416.5,330.5 417.5,330.5 418.5,330.5 Z"/></g>
<g><path style="opacity:0.958" fill="#d1cfd0" d="M 293.5,330.5 C 294.833,330.5 296.167,330.5 297.5,330.5C 297.5,331.833 297.5,333.167 297.5,334.5C 298.5,334.5 299.5,334.5 300.5,334.5C 300.5,335.5 300.5,336.5 300.5,337.5C 299.5,337.5 298.5,337.5 297.5,337.5C 297.337,339.857 297.503,342.19 298,344.5C 299.706,345.308 300.539,346.641 300.5,348.5C 297.921,348.917 295.754,348.25 294,346.5C 293.9,342.798 293.067,339.298 291.5,336C 292.885,334.403 293.551,332.57 293.5,330.5 Z"/></g>
<g><path style="opacity:0.787" fill="#d0d0d0" d="M 58.5,329.5 C 59.5,329.5 60.5,329.5 61.5,329.5C 61.5,335.833 61.5,342.167 61.5,348.5C 60.5,348.5 59.5,348.5 58.5,348.5C 58.5,342.167 58.5,335.833 58.5,329.5 Z"/></g>
<g><path style="opacity:0.931" fill="#cecdce" d="M 70.5,334.5 C 73.5184,334.335 76.5184,334.502 79.5,335C 80,335.5 80.5,336 81,336.5C 81.4988,340.486 81.6655,344.486 81.5,348.5C 80.1667,348.5 78.8333,348.5 77.5,348.5C 77.665,345.15 77.4983,341.817 77,338.5C 76.586,338.043 76.086,337.709 75.5,337.5C 74.5108,341.107 74.1774,344.774 74.5,348.5C 72.549,348.773 71.049,348.107 70,346.5C 69.3064,342.446 69.4731,338.446 70.5,334.5 Z"/></g>
<g><path style="opacity:0.961" fill="#d1cecf" d="M 90.5,334.5 C 93.5,334.5 96.5,334.5 99.5,334.5C 99.5,339.167 99.5,343.833 99.5,348.5C 97.4086,348.318 95.4086,348.652 93.5,349.5C 89.3197,348.483 87.6531,345.816 88.5,341.5C 88.3187,338.837 88.9854,336.503 90.5,334.5 Z M 93.5,337.5 C 95.0265,338.492 95.6932,339.992 95.5,342C 94.3797,346.462 93.3797,346.295 92.5,341.5C 92.6233,340.075 92.9566,338.742 93.5,337.5 Z"/></g>
<g><path style="opacity:0.932" fill="#cac8c9" d="M 146.5,334.5 C 153.691,333.183 156.691,336.183 155.5,343.5C 153.143,343.337 150.81,343.503 148.5,344C 149.025,344.692 149.692,345.192 150.5,345.5C 152.198,344.319 153.865,344.319 155.5,345.5C 153.156,349.001 150.156,349.835 146.5,348C 143.931,343.567 143.931,339.067 146.5,334.5 Z M 149.5,337.5 C 152.137,339.154 151.803,339.654 148.5,339C 149.056,338.617 149.389,338.117 149.5,337.5 Z"/></g>
<g><path style="opacity:0.771" fill="#dcdbdc" d="M 209.5,329.5 C 210.5,329.5 211.5,329.5 212.5,329.5C 212.5,335.833 212.5,342.167 212.5,348.5C 211.5,348.5 210.5,348.5 209.5,348.5C 209.5,342.167 209.5,335.833 209.5,329.5 Z"/></g>
<g><path style="opacity:0.004" fill="#000000" d="M 236.5,335.5 C 237.833,336.167 237.833,336.167 236.5,335.5 Z"/></g>
<g><path style="opacity:0.902" fill="#dddcdd" d="M 267.5,337.5 C 267.5,339.167 267.5,340.833 267.5,342.5C 265.167,342.5 262.833,342.5 260.5,342.5C 260.719,343.675 260.386,344.675 259.5,345.5C 258.516,342.572 258.183,339.572 258.5,336.5C 259.492,334.974 260.992,334.307 263,334.5C 265.256,334.547 266.756,335.547 267.5,337.5 Z M 261.5,337.5 C 263.337,337.639 263.67,338.306 262.5,339.5C 261.702,339.043 261.369,338.376 261.5,337.5 Z"/></g>
<g><path style="opacity:0.96" fill="#c3c2c3" d="M 307.5,334.5 C 312.511,334.334 317.511,334.501 322.5,335C 323,335.5 323.5,336 324,336.5C 324.499,340.486 324.666,344.486 324.5,348.5C 323.167,348.5 321.833,348.5 320.5,348.5C 319.365,334.03 318.698,334.03 318.5,348.5C 317.167,348.5 315.833,348.5 314.5,348.5C 314.665,345.482 314.498,342.482 314,339.5C 313.692,338.692 313.192,338.025 312.5,337.5C 311.511,341.107 311.177,344.774 311.5,348.5C 309.833,348.5 308.167,348.5 306.5,348.5C 306.226,343.737 306.559,339.07 307.5,334.5 Z"/></g>
<g><path style="opacity:0.573" fill="#a5a4a4" d="M 361.5,337.5 C 359.146,336.506 358.146,337.506 358.5,340.5C 357.842,339.602 357.176,338.602 356.5,337.5C 355.818,338.243 355.151,338.909 354.5,339.5C 354.33,338.178 354.663,337.011 355.5,336C 354.207,335.51 352.873,335.343 351.5,335.5C 351.5,339.833 351.5,344.167 351.5,348.5C 350.514,344.03 350.181,339.363 350.5,334.5C 353.85,334.335 357.183,334.502 360.5,335C 361.252,335.671 361.586,336.504 361.5,337.5 Z"/></g>
<g><path style="opacity:0.833" fill="#eae9ea" d="M 361.5,337.5 C 361.5,341.167 361.5,344.833 361.5,348.5C 359.897,348.688 358.563,348.188 357.5,347C 358.423,344.959 358.756,342.792 358.5,340.5C 358.146,337.506 359.146,336.506 361.5,337.5 Z"/></g>
<g><path style="opacity:0.956" fill="#c9c8c9" d="M 128.5,334.5 C 130.857,334.337 133.19,334.503 135.5,335C 137.037,336.11 137.703,337.61 137.5,339.5C 135.311,339.207 133.311,338.707 131.5,338C 130.565,340.381 130.232,342.881 130.5,345.5C 132.737,344.551 135.071,343.884 137.5,343.5C 137.494,347.102 135.66,349.102 132,349.5C 127.466,348.781 125.633,346.114 126.5,341.5C 126.319,338.837 126.985,336.503 128.5,334.5 Z"/></g>
<g><path style="opacity:0.977" fill="#c7c5c4" d="M 178.5,329.5 C 187.026,329.56 188.692,333.06 183.5,340C 184.718,341.416 186.051,341.249 187.5,339.5C 188.167,339.833 188.833,340.167 189.5,340.5C 187.567,343.095 187.567,345.428 189.5,347.5C 186.541,348.351 183.541,349.018 180.5,349.5C 173.845,347.719 172.845,344.219 177.5,339C 176.833,336.667 176.167,334.333 175.5,332C 176.942,331.623 177.942,330.79 178.5,329.5 Z M 179.5,342.5 C 183.06,344.283 183.06,345.283 179.5,345.5C 179.5,344.5 179.5,343.5 179.5,342.5 Z"/></g>
<g><path style="opacity:0.012" fill="#222222" d="M 284.5,337.5 C 285.043,337.56 285.376,337.893 285.5,338.5C 284.311,339.429 282.978,339.762 281.5,339.5C 281.5,339.167 281.5,338.833 281.5,338.5C 282.791,338.737 283.791,338.404 284.5,337.5 Z"/></g>
<g><path style="opacity:0.122" fill="#7e7d7d" d="M 418.5,330.5 C 417.5,330.5 416.5,330.5 415.5,330.5C 415.817,334.702 415.483,338.702 414.5,342.5C 414.5,338.167 414.5,333.833 414.5,329.5C 416.099,329.232 417.432,329.566 418.5,330.5 Z"/></g>
<g><path style="opacity:0.937" fill="#d0cdce" d="M 238.5,334.5 C 239.833,334.5 241.167,334.5 242.5,334.5C 243.358,341.57 244.691,341.903 246.5,335.5C 247.325,334.614 248.325,334.281 249.5,334.5C 249.578,338.954 248.911,343.287 247.5,347.5C 245.604,348.466 243.604,348.799 241.5,348.5C 240.245,343.894 239.245,339.228 238.5,334.5 Z"/></g>
<g><path style="opacity:0.94" fill="#d8d6d7" d="M 334.5,334.5 C 341.27,333.697 344.27,336.697 343.5,343.5C 340.813,343.336 338.146,343.503 335.5,344C 336.025,344.692 336.692,345.192 337.5,345.5C 339.071,344.691 340.738,344.357 342.5,344.5C 342.471,347.656 340.804,349.322 337.5,349.5C 333.32,348.483 331.653,345.816 332.5,341.5C 332.319,338.837 332.985,336.503 334.5,334.5 Z M 337.5,337.5 C 338.773,338.077 338.773,338.743 337.5,339.5C 336.537,339.03 336.537,338.363 337.5,337.5 Z"/></g>
<g><path style="opacity:0.086" fill="#696969" d="M 229.5,334.5 C 230.931,334.881 231.764,335.881 232,337.5C 232.81,341.358 232.643,345.024 231.5,348.5C 231.882,343.633 231.215,338.966 229.5,334.5 Z"/></g>
<g><path style="opacity:0.918" fill="#ccc9ca" d="M 284.5,337.5 C 283.791,338.404 282.791,338.737 281.5,338.5C 280.923,337.227 280.257,337.227 279.5,338.5C 279.957,339.298 280.624,339.631 281.5,339.5C 287.007,343.462 286.674,346.795 280.5,349.5C 273.551,345.828 273.884,344.328 281.5,345C 278.794,343.628 276.794,341.628 275.5,339C 276.528,334.794 279.195,333.461 283.5,335C 284.252,335.671 284.586,336.504 284.5,337.5 Z"/></g>
<g><path style="opacity:0.926" fill="#f8f7f8" d="M 354.5,339.5 C 354.5,342.5 354.5,345.5 354.5,348.5C 353.5,348.5 352.5,348.5 351.5,348.5C 351.5,344.167 351.5,339.833 351.5,335.5C 352.873,335.343 354.207,335.51 355.5,336C 354.663,337.011 354.33,338.178 354.5,339.5 Z"/></g>
<g><path style="opacity:0.692" fill="#e4e2e3" d="M 229.5,334.5 C 231.215,338.966 231.882,343.633 231.5,348.5C 230.5,348.5 229.5,348.5 228.5,348.5C 228.665,345.15 228.498,341.817 228,338.5C 227.586,338.043 227.086,337.709 226.5,337.5C 225.511,341.107 225.177,344.774 225.5,348.5C 224.167,348.5 222.833,348.5 221.5,348.5C 221.5,343.833 221.5,339.167 221.5,334.5C 224.167,334.5 226.833,334.5 229.5,334.5 Z"/></g>
<g><path style="opacity:0.286" fill="#676667" d="M 51.5,330.5 C 48.8333,330.5 46.1667,330.5 43.5,330.5C 43.5,336.5 43.5,342.5 43.5,348.5C 42.5098,342.355 42.1765,336.022 42.5,329.5C 45.7131,329.19 48.7131,329.523 51.5,330.5 Z"/></g>
<g><path style="opacity:0.934" fill="#dfddde" d="M 370.5,330.5 C 371.833,330.5 373.167,330.5 374.5,330.5C 374.543,333.088 375.543,335.254 377.5,337C 376.552,337.483 375.552,337.649 374.5,337.5C 374.381,341.347 375.047,345.014 376.5,348.5C 374.234,348.859 372.401,348.192 371,346.5C 370.9,342.798 370.067,339.298 368.5,336C 369.885,334.403 370.551,332.57 370.5,330.5 Z"/></g>
<g><path style="opacity:0.504" fill="#ccc6c7" d="M 107.5,334.5 C 117.811,332.982 121.645,337.315 119,347.5C 117.644,348.38 116.144,348.714 114.5,348.5C 114.823,344.774 114.489,341.107 113.5,337.5C 112.914,337.709 112.414,338.043 112,338.5C 111.502,341.817 111.335,345.15 111.5,348.5C 110.167,348.5 108.833,348.5 107.5,348.5C 107.5,343.833 107.5,339.167 107.5,334.5 Z"/></g>
<g><path style="opacity:0.947" fill="#a19f9f" d="M 258.5,336.5 C 258.183,339.572 258.516,342.572 259.5,345.5C 260.386,344.675 260.719,343.675 260.5,342.5C 262.833,342.5 265.167,342.5 267.5,342.5C 267.5,340.833 267.5,339.167 267.5,337.5C 268.461,339.265 268.795,341.265 268.5,343.5C 266.076,343.192 263.743,343.526 261.5,344.5C 270.015,344.358 270.348,346.025 262.5,349.5C 261.069,349.023 259.736,348.357 258.5,347.5C 257.207,343.701 257.207,340.034 258.5,336.5 Z M 261.5,337.5 C 261.369,338.376 261.702,339.043 262.5,339.5C 263.67,338.306 263.337,337.639 261.5,337.5 Z"/></g>
<g><path style="opacity:0.951" fill="#d4d0d1" d="M 426.5,334.5 C 427.833,334.5 429.167,334.5 430.5,334.5C 430.177,338.226 430.511,341.893 431.5,345.5C 432.086,345.291 432.586,344.957 433,344.5C 433.498,341.183 433.665,337.85 433.5,334.5C 435.124,334.36 436.29,335.027 437,336.5C 437.499,340.486 437.666,344.486 437.5,348.5C 433.769,349.821 430.269,349.488 427,347.5C 426.501,343.179 426.334,338.846 426.5,334.5 Z"/></g>
<g><path style="opacity:0.004" fill="#000000" d="M 392.5,348.5 C 393.833,349.167 393.833,349.167 392.5,348.5 Z"/></g>
<g><path style="opacity:0.004" fill="#000000" d="M 288.5,355.5 C 289.833,356.167 289.833,356.167 288.5,355.5 Z"/></g>
<g><path style="opacity:0.004" fill="#000000" d="M 282.5,359.5 C 283.833,360.167 283.833,360.167 282.5,359.5 Z"/></g>
<g><path style="opacity:0.004" fill="#000000" d="M 411.5,362.5 C 412.833,363.167 412.833,363.167 411.5,362.5 Z"/></g>
<g><path style="opacity:0.333" fill="#767676" d="M 314.5,371.5 C 312.169,370.005 310.169,370.338 308.5,372.5C 308.5,371.5 308.5,370.5 308.5,369.5C 311.082,369.025 313.082,369.692 314.5,371.5 Z"/></g>
<g><path style="opacity:0.946" fill="#e8e6e6" d="M 173.5,371.5 C 173.828,376.875 173.495,382.208 172.5,387.5C 171.583,386.873 170.583,386.539 169.5,386.5C 169.5,386.167 169.5,385.833 169.5,385.5C 168.872,382.91 167.705,380.577 166,378.5C 165.821,381.553 165.321,384.553 164.5,387.5C 163.832,385.031 163.165,382.698 162.5,380.5C 162.5,376.833 162.5,373.167 162.5,369.5C 166.07,369.901 168.236,371.901 169,375.5C 169.346,373.782 169.846,372.115 170.5,370.5C 171.723,369.386 173.056,369.219 174.5,370C 173.944,370.383 173.611,370.883 173.5,371.5 Z"/></g>
<g><path style="opacity:0.928" fill="#ded6d5" d="M 291.5,377.5 C 292.568,378.434 293.901,378.768 295.5,378.5C 296.221,367.958 296.887,368.124 297.5,379C 297.167,381.833 296.833,384.667 296.5,387.5C 295.526,385.257 295.192,382.924 295.5,380.5C 293.833,380.5 292.167,380.5 290.5,380.5C 290.263,381.791 290.596,382.791 291.5,383.5C 291.817,387.172 290.151,388.838 286.5,388.5C 286.5,382.167 286.5,375.833 286.5,369.5C 288.144,369.286 289.644,369.62 291,370.5C 291.497,372.81 291.663,375.143 291.5,377.5 Z"/></g>
<g><path style="opacity:0.911" fill="#c3c2c3" d="M 270.5,369.5 C 272.857,369.337 275.19,369.503 277.5,370C 279.155,371.444 279.822,373.278 279.5,375.5C 277.167,374.833 274.833,374.167 272.5,373.5C 272.5,377.5 272.5,381.5 272.5,385.5C 274.672,384.199 277.005,383.199 279.5,382.5C 279.133,388.156 276.133,389.989 270.5,388C 270,387.5 269.5,387 269,386.5C 268.333,381.5 268.333,376.5 269,371.5C 269.717,370.956 270.217,370.289 270.5,369.5 Z"/></g>
<g><path style="opacity:0.202" fill="#929191" d="M 291.5,383.5 C 290.596,382.791 290.263,381.791 290.5,380.5C 292.167,380.5 293.833,380.5 295.5,380.5C 295.192,382.924 295.526,385.257 296.5,387.5C 296.833,384.667 297.167,381.833 297.5,379C 296.887,368.124 296.221,367.958 295.5,378.5C 293.901,378.768 292.568,378.434 291.5,377.5C 292.5,377.5 293.5,377.5 294.5,377.5C 294.5,374.833 294.5,372.167 294.5,369.5C 295.833,369.5 297.167,369.5 298.5,369.5C 298.5,375.833 298.5,382.167 298.5,388.5C 297.167,388.5 295.833,388.5 294.5,388.5C 294.5,386.167 294.5,383.833 294.5,381.5C 292.821,381.285 291.821,381.952 291.5,383.5 Z"/></g>
<g><path style="opacity:0.486" fill="#616161" d="M 181.5,369.5 C 182.833,369.5 184.167,369.5 185.5,369.5C 185.5,375.833 185.5,382.167 185.5,388.5C 184.167,388.5 182.833,388.5 181.5,388.5C 181.5,382.167 181.5,375.833 181.5,369.5 Z"/></g>
<g><path style="opacity:0.898" fill="#fefefe" d="M 182.5,370.5 C 183.814,372.915 184.481,375.748 184.5,379C 184.167,381.833 183.833,384.667 183.5,387.5C 182.505,381.872 182.171,376.206 182.5,370.5 Z"/></g>
<g><path style="opacity:0.825" fill="#d4d1d2" d="M 192.5,369.5 C 195.85,369.335 199.183,369.502 202.5,370C 203.694,372.658 202.694,373.824 199.5,373.5C 199.5,378.5 199.5,383.5 199.5,388.5C 198.167,388.5 196.833,388.5 195.5,388.5C 195.827,383.456 195.494,378.456 194.5,373.5C 192.889,372.68 192.222,371.346 192.5,369.5 Z"/></g>
<g><path style="opacity:0.916" fill="#c1c0c1" d="M 223.5,369.5 C 229.07,368.006 232.07,370.006 232.5,375.5C 230.43,375.551 228.597,374.885 227,373.5C 226.5,373.833 226,374.167 225.5,374.5C 228.054,376.708 230.554,379.041 233,381.5C 233.756,383.809 233.256,385.809 231.5,387.5C 228.894,388.652 226.227,388.818 223.5,388C 221.845,386.556 221.178,384.722 221.5,382.5C 223.995,383.199 226.328,384.199 228.5,385.5C 228.649,384.448 228.483,383.448 228,382.5C 225.815,381.072 223.815,379.405 222,377.5C 221.109,374.502 221.609,371.836 223.5,369.5 Z"/></g>
<g><path style="opacity:0.929" fill="#c6c4c4" d="M 314.5,371.5 C 315.992,376.672 317.326,382.005 318.5,387.5C 317.833,387.833 317.167,388.167 316.5,388.5C 314.833,387.833 313.167,387.167 311.5,386.5C 309.666,387.754 307.666,388.421 305.5,388.5C 305.856,383.03 306.856,377.697 308.5,372.5C 310.169,370.338 312.169,370.005 314.5,371.5 Z M 311.5,377.5 C 312.788,379.035 312.788,380.701 311.5,382.5C 310.566,380.905 310.566,379.239 311.5,377.5 Z"/></g>
<g><path style="opacity:0.939" fill="#cecccb" d="M 325.5,369.5 C 328.518,369.335 331.518,369.502 334.5,370C 335.211,371.255 336.044,372.421 337,373.5C 337.296,377.09 336.796,380.59 335.5,384C 335.559,385.436 335.892,386.769 336.5,388C 335.056,388.781 333.723,388.614 332.5,387.5C 330.605,382.275 329.605,382.609 329.5,388.5C 328.167,388.5 326.833,388.5 325.5,388.5C 325.5,382.167 325.5,375.833 325.5,369.5 Z M 329.5,373.5 C 330.5,373.5 331.5,373.5 332.5,373.5C 332.5,375.5 332.5,377.5 332.5,379.5C 331.5,379.5 330.5,379.5 329.5,379.5C 329.5,377.5 329.5,375.5 329.5,373.5 Z"/></g>
<g><path style="opacity:0.02" fill="#727272" d="M 173.5,371.5 C 174.489,376.975 174.822,382.642 174.5,388.5C 172.302,388.88 170.635,388.213 169.5,386.5C 170.583,386.539 171.583,386.873 172.5,387.5C 173.495,382.208 173.828,376.875 173.5,371.5 Z"/></g>
<g><path style="opacity:0.396" fill="#616060" d="M 239.5,369.5 C 240.833,369.5 242.167,369.5 243.5,369.5C 243.5,375.833 243.5,382.167 243.5,388.5C 242.167,388.5 240.833,388.5 239.5,388.5C 239.5,382.167 239.5,375.833 239.5,369.5 Z"/></g>
<g><path style="opacity:0.884" fill="#fefdfd" d="M 240.5,370.5 C 241.814,372.915 242.481,375.748 242.5,379C 242.167,381.833 241.833,384.667 241.5,387.5C 240.505,381.872 240.171,376.206 240.5,370.5 Z"/></g>
<g><path style="opacity:0.396" fill="#e3e1e2" d="M 255.5,385.5 C 256.952,386.302 258.618,386.802 260.5,387C 257.854,387.497 255.187,387.664 252.5,387.5C 252.737,386.209 252.404,385.209 251.5,384.5C 251.5,379.5 251.5,374.5 251.5,369.5C 252.833,369.5 254.167,369.5 255.5,369.5C 255.5,374.833 255.5,380.167 255.5,385.5 Z"/></g>
<g><path style="opacity:0.004" fill="#000000" d="M 470.5,380.5 C 471.833,381.167 471.833,381.167 470.5,380.5 Z"/></g>
<g><path style="opacity:0.141" fill="#686868" d="M 169.5,385.5 C 168.21,384.942 167.377,383.942 167,382.5C 166.505,384.473 166.338,386.473 166.5,388.5C 165.167,388.5 163.833,388.5 162.5,388.5C 162.5,385.833 162.5,383.167 162.5,380.5C 163.165,382.698 163.832,385.031 164.5,387.5C 165.321,384.553 165.821,381.553 166,378.5C 167.705,380.577 168.872,382.91 169.5,385.5 Z"/></g>
<g><path style="opacity:0.651" fill="#7b7b7b" d="M 251.5,384.5 C 252.404,385.209 252.737,386.209 252.5,387.5C 255.187,387.664 257.854,387.497 260.5,387C 258.618,386.802 256.952,386.302 255.5,385.5C 257.5,385.5 259.5,385.5 261.5,385.5C 261.5,386.5 261.5,387.5 261.5,388.5C 258.167,388.5 254.833,388.5 251.5,388.5C 251.5,387.167 251.5,385.833 251.5,384.5 Z"/></g>
<g><path style="opacity:0.004" fill="#000000" d="M 306.5,398.5 C 307.833,399.167 307.833,399.167 306.5,398.5 Z"/></g>
<g><path style="opacity:0.004" fill="#000000" d="M 72.5,406.5 C 73.8333,407.167 73.8333,407.167 72.5,406.5 Z"/></g>
<g><path style="opacity:0.004" fill="#000000" d="M 177.5,406.5 C 178.833,407.167 178.833,407.167 177.5,406.5 Z"/></g>
<g><path style="opacity:0.004" fill="#000000" d="M 418.5,409.5 C 419.833,410.167 419.833,410.167 418.5,409.5 Z"/></g>
<g><path style="opacity:0.004" fill="#000000" d="M 340.5,412.5 C 341.833,413.167 341.833,413.167 340.5,412.5 Z"/></g>
<g><path style="opacity:0.004" fill="#000000" d="M 151.5,419.5 C 152.833,420.167 152.833,420.167 151.5,419.5 Z"/></g>
<g><path style="opacity:0.004" fill="#000000" d="M 465.5,433.5 C 466.833,434.167 466.833,434.167 465.5,433.5 Z"/></g>
<g><path style="opacity:0.004" fill="#000000" d="M 346.5,434.5 C 347.833,435.167 347.833,435.167 346.5,434.5 Z"/></g>
<g><path style="opacity:0.004" fill="#000000" d="M 17.5,435.5 C 18.8333,436.167 18.8333,436.167 17.5,435.5 Z"/></g>
<g><path style="opacity:0.004" fill="#000000" d="M 348.5,438.5 C 349.833,439.167 349.833,439.167 348.5,438.5 Z"/></g>
<g><path style="opacity:0.004" fill="#000000" d="M 338.5,452.5 C 339.833,453.167 339.833,453.167 338.5,452.5 Z"/></g>
<g><path style="opacity:0.004" fill="#000000" d="M 1.5,455.5 C 2.83333,456.167 2.83333,456.167 1.5,455.5 Z"/></g>
<g><path style="opacity:0.004" fill="#000000" d="M 264.5,455.5 C 265.833,456.167 265.833,456.167 264.5,455.5 Z"/></g>
<g><path style="opacity:0.004" fill="#000000" d="M 228.5,459.5 C 229.833,460.167 229.833,460.167 228.5,459.5 Z"/></g>
<g><path style="opacity:0.004" fill="#000000" d="M 106.5,467.5 C 107.833,468.167 107.833,468.167 106.5,467.5 Z"/></g>
<g><path style="opacity:0.004" fill="#000000" d="M 353.5,474.5 C 354.833,475.167 354.833,475.167 353.5,474.5 Z"/></g>
<g><path style="opacity:0.004" fill="#000000" d="M 180.5,475.5 C 181.833,476.167 181.833,476.167 180.5,475.5 Z"/></g>
<g><path style="opacity:0.004" fill="#000000" d="M 214.5,486.5 C 215.833,487.167 215.833,487.167 214.5,486.5 Z"/></g>
<g><path style="opacity:0.004" fill="#000000" d="M 105.5,488.5 C 106.833,489.167 106.833,489.167 105.5,488.5 Z"/></g>
<g><path style="opacity:0.004" fill="#000000" d="M 292.5,491.5 C 293.833,492.167 293.833,492.167 292.5,491.5 Z"/></g>
</svg>
